<svg width="91" height="92" viewBox="0 0 91 92" fill="none" xmlns="http://www.w3.org/2000/svg">
<g filter="url(#filter0_d_231_3)">
<path d="M47.4273 41.7548L47.4274 41.7548V41.7473V37.663C47.4274 36.8852 47.1066 36.1469 46.5482 35.6083C45.991 35.071 45.2428 34.7752 44.4698 34.7752H40.5178C38.919 34.7752 37.5603 36.0343 37.5603 37.663V41.5055C37.5377 41.5873 37.525 41.6724 37.5233 41.759C37.5172 42.0734 37.2394 42.3857 36.8244 42.3857H34.1897C32.0829 42.3857 30.4375 40.7477 30.4375 38.8028V27.1926C30.4573 26.5148 30.7909 25.8693 31.3659 25.4395L31.3735 25.4338L31.381 25.428L40.3438 18.4586L40.3577 18.4478L40.3712 18.4365C41.5575 17.445 43.3213 17.4133 44.5461 18.3641L44.5491 18.3665L53.7115 25.4234C54.2574 25.8675 54.5625 26.5117 54.5625 27.1793V38.8147C54.5625 39.7514 54.1763 40.6574 53.4766 41.3304C52.7757 42.0046 51.8178 42.3882 50.8128 42.3857H50.8103H48.114C47.9195 42.3857 47.7401 42.3105 47.6138 42.1878C47.4888 42.0664 47.4262 41.9098 47.4273 41.7548ZM48.114 43.3857H50.8103L29.4375 38.8028C29.4375 41.3339 31.5651 43.3857 34.1897 43.3857H36.8244C37.7512 43.3857 38.5057 42.6698 38.5231 41.7786C38.5233 41.767 38.5308 41.7568 38.5418 41.7532C38.5528 41.7497 38.5603 41.7394 38.5603 41.7278V37.663C38.5603 36.6204 39.4367 35.7752 40.5178 35.7752H44.4698C44.989 35.7752 45.4869 35.9741 45.854 36.3282C46.2211 36.6822 46.4274 37.1624 46.4274 37.663V41.7473C46.4241 42.1807 46.6003 42.5975 46.917 42.9051C47.2337 43.2127 47.6646 43.3857 48.114 43.3857Z" stroke="#576074" stroke-width="2" shape-rendering="crispEdges"/>
</g>
<defs>
<filter id="filter0_d_231_3" x="0.4375" y="0.671448" width="90.125" height="90.7143" filterUnits="userSpaceOnUse" color-interpolation-filters="sRGB">
<feFlood flood-opacity="0" result="BackgroundImageFix"/>
<feColorMatrix in="SourceAlpha" type="matrix" values="0 0 0 0 0 0 0 0 0 0 0 0 0 0 0 0 0 0 127 0" result="hardAlpha"/>
<feOffset dx="3" dy="16"/>
<feGaussianBlur stdDeviation="16"/>
<feComposite in2="hardAlpha" operator="out"/>
<feColorMatrix type="matrix" values="0 0 0 0 1 0 0 0 0 0.407843 0 0 0 0 0.47451 0 0 0 0.15 0"/>
<feBlend mode="normal" in2="BackgroundImageFix" result="effect1_dropShadow_231_3"/>
<feBlend mode="normal" in="SourceGraphic" in2="effect1_dropShadow_231_3" result="shape"/>
</filter>
</defs>
</svg>
